<svg width="281" height="42" viewBox="0 0 281 42" fill="none" xmlns="http://www.w3.org/2000/svg">
<path d="M4.66937 15.5524L0 41.8719H48.4896L50.6447 29.9085H16.4625L17.121 26.3195H51.2434L53.159 15.5524H4.66937ZM5.26801 11.9634H56.8705L51.5427 41.8719H96.4405L98.5956 29.9085H68.0052L73.3331 0H7.4231L5.26801 11.9634Z" fill="#8A5A44"/>
<path d="M129.904 11.9634C131.221 11.9634 132 12.8008 131.76 13.9972C131.521 15.373 130.503 16.1506 129.186 16.1506H116.674L117.393 11.9634H129.904ZM97.7575 41.8719H130.623C138.106 41.8719 144.87 36.1295 146.068 29.2505C146.846 24.8839 145.229 20.936 142.117 18.6629C144.391 16.6291 146.008 13.9374 146.546 11.0063C147.624 5.02463 143.553 0 136.908 0H105.181L103.026 11.9634L97.7575 41.8719ZM114.22 29.9085L114.998 25.7213H130.144C131.461 25.7213 132.179 26.5588 132 27.7551C131.76 29.1309 130.742 29.9085 129.425 29.9085H114.22ZM141.219 41.8719H179.472L181.627 29.9085H149.899C149.899 30.0281 149.839 30.088 149.839 30.2076C149.001 35.0528 145.708 39.3596 141.219 41.8719ZM145.469 18.4236C147.923 20.2181 149.6 23.0295 149.959 26.3195H182.225L184.141 15.5524H147.983C147.265 16.5693 146.427 17.5862 145.469 18.4236ZM146.906 0C149.719 2.21323 151.096 5.86207 150.378 9.86981C150.258 10.5876 150.078 11.2456 149.839 11.9634H184.74L186.895 0H146.906Z" fill="#8A5A44"/>
<path d="M265.555 16.8086L249.931 15.5524H233.648C233.588 22.1921 238.737 24.5848 245.501 25.1231L261.185 26.3195C262.502 26.4391 263.221 26.8578 262.981 28.0542C262.742 29.43 261.904 29.9085 260.587 29.9085H247.417C246.1 29.9085 245.381 29.43 245.621 28.0542H231.254L231.134 28.6523C229.697 35.8304 234.786 41.8719 242.508 41.8719H261.185C268.908 41.8719 275.912 36.4884 276.93 30.4469L277.169 29.0112C278.486 20.9359 273.158 17.4067 265.555 16.8086ZM183.901 28.6523C182.465 35.8304 187.553 41.8719 195.275 41.8719H213.953C221.675 41.8719 228.679 36.4884 229.697 30.4469L229.937 29.0112C231.254 20.9359 225.926 17.4067 218.323 16.8086L202.699 15.5524C201.382 15.4328 200.663 15.0739 200.903 13.6981C201.142 12.5018 201.98 11.9634 203.297 11.9634H263.7C265.017 11.9634 265.735 12.4419 265.496 13.8177H279.863L279.983 13.2196C281.419 6.04152 276.331 0 268.609 0H202.699C194.916 0 187.912 6.04152 186.835 11.9634L186.655 12.9205C185.158 21.5939 190.666 24.525 198.269 25.1231L213.953 26.3195C215.27 26.4391 215.988 26.8578 215.749 28.0542C215.509 29.43 214.671 29.9085 213.354 29.9085H200.184C198.867 29.9085 198.149 29.43 198.388 28.0542H184.021L183.901 28.6523Z" fill="#8A5A44"/>
</svg>
